<svg xmlns="http://www.w3.org/2000/svg" xmlns:xlink="http://www.w3.org/1999/xlink" version="1.1" x="0px" y="0px" viewBox="0 0 30 37.5" xml:space="preserve"><g transform="translate(-150 -80)"><g xmlns="http://www.w3.org/2000/svg" xmlns:xlink="http://www.w3.org/1999/xlink"><path d="M161.502,102.415c-3.256-1.168-6.572-1.375-8.502-1.408V86.007c2.479,0.047,7.285,0.385,10.945,2.825L164,88.869v1.527    c0.322-0.202,0.656-0.38,1-0.536v-0.991l0.055-0.037c3.66-2.44,8.467-2.778,10.945-2.825v7.628    c1.291,2.454,1.338,5.44,0.013,7.943l2.987,2.987V88h-2v-3c-2,0-8,0-12.5,3c-4.5-3-10.5-3-12.5-3v3h-2v18h17.258    c-1.798-0.262-3.461-1.081-4.769-2.389C162.116,103.238,161.791,102.835,161.502,102.415z"/><path d="M169.737,106h3.626l-0.886-0.886C171.622,105.567,170.695,105.86,169.737,106z"/><path d="M174.757,101.736c1.929-2.912,1.611-6.874-0.954-9.439c-2.928-2.928-7.678-2.928-10.606,0    c-2.929,2.929-2.929,7.678,0,10.607c2.565,2.565,6.528,2.883,9.439,0.954l4.702,4.703c0.586,0.586,1.536,0.586,2.122,0    c0.586-0.586,0.586-1.536,0-2.121L174.757,101.736z M164.965,101.136c-1.95-1.949-1.95-5.121,0-7.071    c1.949-1.95,5.121-1.95,7.07,0c1.949,1.949,1.949,5.122,0,7.071C170.086,103.085,166.914,103.085,164.965,101.136z"/></g></g><text x="0" y="45" fill="#000000" font-size="5px" font-weight="bold" font-family="'Helvetica Neue', Helvetica, Arial-Unicode, Arial, Sans-serif">Created by Hea Poh Lin</text><text x="0" y="50" fill="#000000" font-size="5px" font-weight="bold" font-family="'Helvetica Neue', Helvetica, Arial-Unicode, Arial, Sans-serif">from the Noun Project</text></svg>