<?xml version="1.0" encoding="utf-8"?>
<!-- Svg Vector Icons : http://www.onlinewebfonts.com/icon -->
<!DOCTYPE svg PUBLIC "-//W3C//DTD SVG 1.1//EN" "http://www.w3.org/Graphics/SVG/1.1/DTD/svg11.dtd">
<svg version="1.1" xmlns="http://www.w3.org/2000/svg" xmlns:xlink="http://www.w3.org/1999/xlink" x="0px" y="0px" viewBox="0 0 1000 1000" enable-background="new 0 0 1000 1000" xml:space="preserve">
<metadata> Svg Vector Icons : http://www.onlinewebfonts.com/icon </metadata>
<g><g transform="translate(0.000000,512.000000) scale(0.100000,-0.100000)"><path d="M2198.4,4983.6c-465.1-114.8-826.9-472.8-955.1-945.5c-30.6-109.1-32.5-403.9-40.2-3544.8c-3.8-2201.2,1.9-3539.1,13.4-3742c34.4-551.3,151.2-859.4,430.7-1140.8c172.3-170.4,290.9-246.9,518.7-327.3l153.1-53.6l3240.5-5.7l3238.6-3.8v3914.3v3914.3h-201h-201l-47.9,72.7c-99.5,153.1-132.1,281.4-132.1,530.2c0,250.7,24.9,373.2,126.3,618.2l57.4,137.8h122.5H8645v306.3V5020l-3152.5-1.9C2529.5,5018.1,2330.5,5014.3,2198.4,4983.6z M7726.2,4394.1c0-9.6-21-80.4-45.9-158.9c-101.4-313.9-114.8-742.7-32.5-1027.9c22.9-76.6,40.2-143.6,40.2-149.3c0-19.1-5175.6-9.6-5290.5,9.6c-220.1,36.4-413.4,178-509.2,373.2c-68.9,137.8-76.6,379-19.1,530.2c72.7,195.2,269.9,371.3,467,419.2C2414.7,4407.5,7726.2,4411.3,7726.2,4394.1z M5161.4,1172.7c472.8-135.9,863.2-467,1073.8-909.2c135.9-287.1,160.8-405.8,158.9-746.5c0-256.5-5.8-306.3-53.6-459.4c-28.7-93.8-91.9-245-137.8-333.1l-88.1-160.8l447.9-447.9l446-446l-216.3-214.4l-214.4-216.3l-447.9,447.9l-447.9,446l-130.2-76.6c-164.6-97.6-426.8-185.7-639.3-214.4c-545.5-74.7-1152.3,162.7-1510.2,593.4c-828.8,995.3-300.5,2497.9,974.2,2767.7C4562.3,1241.6,4977.6,1226.3,5161.4,1172.7z"/><path d="M4434,587c-392.4-103.3-712-436.4-796.2-828.8c-135.9-645,329.2-1261.3,997.2-1314.9c405.8-32.5,838.4,210.5,1029.8,578c227.8,440.2,153.1,926.4-195.2,1270.9c-231.6,229.7-461.3,327.3-769.5,323.5C4612,615.7,4491.4,602.3,4434,587z"/></g></g>
</svg>